<svg width="24" height="24" viewBox="0 0 24 24" fill="none" xmlns="http://www.w3.org/2000/svg">
<g clip-path="url(#clip0_1_1001)">
<path d="M12 0C5.38293 0 0 5.38293 0 12C0 18.6171 5.38293 24 12 24C18.6171 24 24 18.6171 24 12C24 5.38293 18.6171 0 12 0Z" fill="#FF001F"/>
<path d="M16.4191 15.0049C16.81 15.396 16.81 16.0279 16.4191 16.4191C16.2241 16.6141 15.9681 16.712 15.7119 16.712C15.4559 16.712 15.2 16.6141 15.0049 16.4191L12 13.4139L8.99506 16.4191C8.80005 16.6141 8.54407 16.712 8.28809 16.712C8.03192 16.712 7.77594 16.6141 7.58093 16.4191C7.19 16.0279 7.19 15.396 7.58093 15.0049L10.5861 12L7.58093 8.99504C7.19 8.60393 7.19 7.97203 7.58093 7.58092C7.97205 7.18999 8.60394 7.18999 8.99506 7.58092L12 10.586L15.0049 7.58092C15.3961 7.18999 16.028 7.18999 16.4191 7.58092C16.81 7.97203 16.81 8.60393 16.4191 8.99504L13.4139 12L16.4191 15.0049Z" fill="#FAFAFA"/>
</g>
<defs>
<clipPath id="clip0_1_1001">
<rect width="24" height="24" fill="white"/>
</clipPath>
</defs>
</svg>
